STARTFONT 2.1
FONT -DEC-Terminal-Bold-R-Narrow--18-180-75-75-C-70-iso8859-5
SIZE 18 75 75
FONTBOUNDINGBOX 7 20 0 -5

STARTPROPERTIES 24
FOUNDRY "Monotype"
FAMILY_NAME "VT"
WEIGHT_NAME "Bold"
SLANT "R"
SETWIDTH_NAME "Narrow"
ADD_STYLE_NAME ""
PIXEL_SIZE 18
POINT_SIZE 180
RESOLUTION_X 75
RESOLUTION_Y 75
SPACING "C"
AVERAGE_WIDTH 70
CHARSET_REGISTRY "iso8859"
CHARSET_ENCODING "5"
FACE_NAME "VT Narrow Bold ISO Latin Cyrillic"
_DEC_DEVICE_FONTNAMES "PS=vt-narrowbold-isolatincyrillic"
COPYRIGHT "Copyright (c) 1993 Monotype Typography Ltd."
CAP_HEIGHT 11
X_HEIGHT 8
WEIGHT 10
QUAD_WIDTH 7
DEFAULT_CHAR 160
FONT_DESCENT 5
FONT_ASCENT 15
ENDPROPERTIES

CHARS 191

STARTCHAR space
ENCODING 32
SWIDTH 361 0
DWIDTH 7 0
BBX 7 20 0 -5
BITMAP
00
00
00
00
00
00
00
00
00
00
00
00
00
00
00
00
00
00
00
00
ENDCHAR

STARTCHAR exclam
ENCODING 33
SWIDTH 361 0
DWIDTH 7 0
BBX 7 20 0 -5
BITMAP
00
00
00
00
18
18
18
18
18
18
18
00
18
3C
18
00
00
00
00
00
ENDCHAR

STARTCHAR quotedbl
ENCODING 34
SWIDTH 361 0
DWIDTH 7 0
BBX 7 20 0 -5
BITMAP
00
00
6C
6C
6C
6C
6C
00
00
00
00
00
00
00
00
00
00
00
00
00
ENDCHAR

STARTCHAR numbersign
ENCODING 35
SWIDTH 361 0
DWIDTH 7 0
BBX 7 20 0 -5
BITMAP
00
00
00
00
24
24
24
24
7E
7E
24
24
7E
7E
24
24
24
00
00
00
ENDCHAR

STARTCHAR dollar
ENCODING 36
SWIDTH 361 0
DWIDTH 7 0
BBX 7 20 0 -5
BITMAP
00
00
00
18
18
3C
7E
66
60
78
3E
06
66
7E
7C
18
18
18
00
00
ENDCHAR

STARTCHAR percent
ENCODING 37
SWIDTH 361 0
DWIDTH 7 0
BBX 7 20 0 -5
BITMAP
00
00
00
00
70
D8
D8
70
06
3C
E0
1C
36
36
1C
00
00
00
00
00
ENDCHAR

STARTCHAR ampersand
ENCODING 38
SWIDTH 361 0
DWIDTH 7 0
BBX 7 20 0 -5
BITMAP
00
00
00
00
1C
3C
30
30
30
38
7A
6E
6C
7E
36
00
00
00
00
00
ENDCHAR

STARTCHAR quoteright
ENCODING 39
SWIDTH 361 0
DWIDTH 7 0
BBX 7 20 0 -5
BITMAP
00
00
0C
08
18
10
30
00
00
00
00
00
00
00
00
00
00
00
00
00
ENDCHAR

STARTCHAR parenleft
ENCODING 40
SWIDTH 361 0
DWIDTH 7 0
BBX 7 20 0 -5
BITMAP
00
00
00
0C
0C
18
18
30
30
30
30
30
30
18
18
0C
0C
00
00
00
ENDCHAR

STARTCHAR parenright
ENCODING 41
SWIDTH 361 0
DWIDTH 7 0
BBX 7 20 0 -5
BITMAP
00
00
00
30
30
18
18
0C
0C
0C
0C
0C
0C
18
18
30
30
00
00
00
ENDCHAR

STARTCHAR asterisk
ENCODING 42
SWIDTH 354 0
DWIDTH 7 0
BBX 7 20 0 -5
BITMAP
00
00
00
00
00
00
10
10
54
7C
38
28
6C
00
00
00
00
00
00
00
ENDCHAR

STARTCHAR plus
ENCODING 43
SWIDTH 361 0
DWIDTH 7 0
BBX 7 20 0 -5
BITMAP
00
00
00
00
00
00
18
18
18
7E
7E
18
18
18
00
00
00
00
00
00
ENDCHAR

STARTCHAR comma
ENCODING 44
SWIDTH 361 0
DWIDTH 7 0
BBX 7 20 0 -5
BITMAP
00
00
00
00
00
00
00
00
00
00
00
00
18
18
30
30
20
00
00
00
ENDCHAR

STARTCHAR minus
ENCODING 45
SWIDTH 361 0
DWIDTH 7 0
BBX 7 20 0 -5
BITMAP
00
00
00
00
00
00
00
00
00
00
3C
3C
00
00
00
00
00
00
00
00
ENDCHAR

STARTCHAR period
ENCODING 46
SWIDTH 361 0
DWIDTH 7 0
BBX 7 20 0 -5
BITMAP
00
00
00
00
00
00
00
00
00
00
00
00
18
3C
18
00
00
00
00
00
ENDCHAR

STARTCHAR slash
ENCODING 47
SWIDTH 361 0
DWIDTH 7 0
BBX 7 20 0 -5
BITMAP
00
00
00
00
06
06
06
0C
0C
0C
18
18
18
30
30
30
00
00
00
00
ENDCHAR

STARTCHAR zero
ENCODING 48
SWIDTH 361 0
DWIDTH 7 0
BBX 7 20 0 -5
BITMAP
00
00
00
00
18
3C
3C
66
66
66
66
66
3C
3C
18
00
00
00
00
00
ENDCHAR

STARTCHAR one
ENCODING 49
SWIDTH 361 0
DWIDTH 7 0
BBX 7 20 0 -5
BITMAP
00
00
00
00
18
78
78
18
18
18
18
18
18
7E
7E
00
00
00
00
00
ENDCHAR

STARTCHAR two
ENCODING 50
SWIDTH 361 0
DWIDTH 7 0
BBX 7 20 0 -5
BITMAP
00
00
00
00
3C
7E
66
06
06
0C
0C
18
30
7E
7E
00
00
00
00
00
ENDCHAR

STARTCHAR three
ENCODING 51
SWIDTH 361 0
DWIDTH 7 0
BBX 7 20 0 -5
BITMAP
00
00
00
00
3C
7E
66
06
1C
1E
06
06
66
7E
3C
00
00
00
00
00
ENDCHAR

STARTCHAR four
ENCODING 52
SWIDTH 361 0
DWIDTH 7 0
BBX 7 20 0 -5
BITMAP
00
00
00
00
0C
1C
1C
3C
2C
6C
7E
7E
0C
3E
3E
00
00
00
00
00
ENDCHAR

STARTCHAR five
ENCODING 53
SWIDTH 361 0
DWIDTH 7 0
BBX 7 20 0 -5
BITMAP
00
00
00
00
7E
7E
60
60
7C
7E
06
06
66
7E
3C
00
00
00
00
00
ENDCHAR

STARTCHAR six
ENCODING 54
SWIDTH 361 0
DWIDTH 7 0
BBX 7 20 0 -5
BITMAP
00
00
00
00
0E
1E
38
30
7C
7E
66
66
66
7E
3C
00
00
00
00
00
ENDCHAR

STARTCHAR seven
ENCODING 55
SWIDTH 361 0
DWIDTH 7 0
BBX 7 20 0 -5
BITMAP
00
00
00
00
7E
7E
46
06
0C
0C
0C
18
18
18
38
00
00
00
00
00
ENDCHAR

STARTCHAR eight
ENCODING 56
SWIDTH 361 0
DWIDTH 7 0
BBX 7 20 0 -5
BITMAP
00
00
00
00
3C
7E
66
66
3C
7E
66
66
66
7E
3C
00
00
00
00
00
ENDCHAR

STARTCHAR nine
ENCODING 57
SWIDTH 361 0
DWIDTH 7 0
BBX 7 20 0 -5
BITMAP
00
00
00
00
3C
7E
66
66
66
7E
3E
0C
1C
78
70
00
00
00
00
00
ENDCHAR

STARTCHAR colon
ENCODING 58
SWIDTH 361 0
DWIDTH 7 0
BBX 7 20 0 -5
BITMAP
00
00
00
00
00
00
00
18
3C
18
00
00
18
3C
18
00
00
00
00
00
ENDCHAR

STARTCHAR semicolon
ENCODING 59
SWIDTH 361 0
DWIDTH 7 0
BBX 7 20 0 -5
BITMAP
00
00
00
00
00
00
00
18
3C
18
00
00
18
18
30
30
20
00
00
00
ENDCHAR

STARTCHAR less
ENCODING 60
SWIDTH 361 0
DWIDTH 7 0
BBX 7 20 0 -5
BITMAP
00
00
00
00
00
00
00
0E
1C
38
70
38
1C
0E
00
00
00
00
00
00
ENDCHAR

STARTCHAR equal
ENCODING 61
SWIDTH 361 0
DWIDTH 7 0
BBX 7 20 0 -5
BITMAP
00
00
00
00
00
00
00
7E
7E
00
00
7E
7E
00
00
00
00
00
00
00
ENDCHAR

STARTCHAR greater
ENCODING 62
SWIDTH 361 0
DWIDTH 7 0
BBX 7 20 0 -5
BITMAP
00
00
00
00
00
00
00
70
38
1C
0E
1C
38
70
00
00
00
00
00
00
ENDCHAR

STARTCHAR question
ENCODING 63
SWIDTH 361 0
DWIDTH 7 0
BBX 7 20 0 -5
BITMAP
00
00
00
00
3C
7E
46
0E
1C
18
18
00
18
3C
18
00
00
00
00
00
ENDCHAR

STARTCHAR at
ENCODING 64
SWIDTH 361 0
DWIDTH 7 0
BBX 7 20 0 -5
BITMAP
00
00
00
3C
7E
62
62
6E
6E
6A
6A
6E
6E
60
60
7E
3C
00
00
00
ENDCHAR

STARTCHAR A
ENCODING 65
SWIDTH 361 0
DWIDTH 7 0
BBX 7 20 0 -5
BITMAP
00
00
00
00
18
3C
3C
66
66
66
7E
7E
66
66
66
00
00
00
00
00
ENDCHAR

STARTCHAR B
ENCODING 66
SWIDTH 361 0
DWIDTH 7 0
BBX 7 20 0 -5
BITMAP
00
00
00
00
7C
7E
66
66
7E
7C
66
66
66
7E
7C
00
00
00
00
00
ENDCHAR

STARTCHAR C
ENCODING 67
SWIDTH 361 0
DWIDTH 7 0
BBX 7 20 0 -5
BITMAP
00
00
00
00
3A
7E
66
66
60
60
60
60
66
7E
3C
00
00
00
00
00
ENDCHAR

STARTCHAR D
ENCODING 68
SWIDTH 361 0
DWIDTH 7 0
BBX 7 20 0 -5
BITMAP
00
00
00
00
7C
7E
66
66
66
66
66
66
66
7E
7C
00
00
00
00
00
ENDCHAR

STARTCHAR E
ENCODING 69
SWIDTH 361 0
DWIDTH 7 0
BBX 7 20 0 -5
BITMAP
00
00
00
00
7E
7E
60
60
7C
7C
60
60
60
7E
7E
00
00
00
00
00
ENDCHAR

STARTCHAR F
ENCODING 70
SWIDTH 361 0
DWIDTH 7 0
BBX 7 20 0 -5
BITMAP
00
00
00
00
7E
7E
60
60
7C
7C
60
60
60
60
60
00
00
00
00
00
ENDCHAR

STARTCHAR G
ENCODING 71
SWIDTH 361 0
DWIDTH 7 0
BBX 7 20 0 -5
BITMAP
00
00
00
00
3A
7E
66
66
60
6E
6E
66
66
7E
3C
00
00
00
00
00
ENDCHAR

STARTCHAR H
ENCODING 72
SWIDTH 361 0
DWIDTH 7 0
BBX 7 20 0 -5
BITMAP
00
00
00
00
66
66
66
66
7E
7E
66
66
66
66
66
00
00
00
00
00
ENDCHAR

STARTCHAR I
ENCODING 73
SWIDTH 361 0
DWIDTH 7 0
BBX 7 20 0 -5
BITMAP
00
00
00
00
7E
7E
18
18
18
18
18
18
18
7E
7E
00
00
00
00
00
ENDCHAR

STARTCHAR J
ENCODING 74
SWIDTH 361 0
DWIDTH 7 0
BBX 7 20 0 -5
BITMAP
00
00
00
00
3E
3E
0C
0C
0C
0C
0C
6C
6C
7C
38
00
00
00
00
00
ENDCHAR

STARTCHAR K
ENCODING 75
SWIDTH 361 0
DWIDTH 7 0
BBX 7 20 0 -5
BITMAP
00
00
00
00
66
66
6C
6C
78
78
6C
6C
6C
66
66
00
00
00
00
00
ENDCHAR

STARTCHAR L
ENCODING 76
SWIDTH 361 0
DWIDTH 7 0
BBX 7 20 0 -5
BITMAP
00
00
00
00
78
78
30
30
30
30
30
30
32
7E
7E
00
00
00
00
00
ENDCHAR

STARTCHAR M
ENCODING 77
SWIDTH 361 0
DWIDTH 7 0
BBX 7 20 0 -5
BITMAP
00
00
00
00
42
66
66
7E
7E
7E
66
66
66
66
66
00
00
00
00
00
ENDCHAR

STARTCHAR N
ENCODING 78
SWIDTH 361 0
DWIDTH 7 0
BBX 7 20 0 -5
BITMAP
00
00
00
00
66
66
66
76
76
7E
6E
6E
66
66
66
00
00
00
00
00
ENDCHAR

STARTCHAR O
ENCODING 79
SWIDTH 361 0
DWIDTH 7 0
BBX 7 20 0 -5
BITMAP
00
00
00
00
3C
7E
66
66
66
66
66
66
66
7E
3C
00
00
00
00
00
ENDCHAR

STARTCHAR P
ENCODING 80
SWIDTH 361 0
DWIDTH 7 0
BBX 7 20 0 -5
BITMAP
00
00
00
00
7C
7E
66
66
66
7E
7C
60
60
70
70
00
00
00
00
00
ENDCHAR

STARTCHAR Q
ENCODING 81
SWIDTH 361 0
DWIDTH 7 0
BBX 7 20 0 -5
BITMAP
00
00
00
00
3C
7E
66
66
66
66
66
66
66
7E
3C
20
7E
6E
00
00
ENDCHAR

STARTCHAR R
ENCODING 82
SWIDTH 361 0
DWIDTH 7 0
BBX 7 20 0 -5
BITMAP
00
00
00
00
7C
7E
66
66
66
7C
7C
6C
6E
66
66
00
00
00
00
00
ENDCHAR

STARTCHAR S
ENCODING 83
SWIDTH 361 0
DWIDTH 7 0
BBX 7 20 0 -5
BITMAP
00
00
00
00
3E
7E
66
60
70
3C
0E
06
66
7E
7C
00
00
00
00
00
ENDCHAR

STARTCHAR T
ENCODING 84
SWIDTH 361 0
DWIDTH 7 0
BBX 7 20 0 -5
BITMAP
00
00
00
00
7E
7E
5A
18
18
18
18
18
18
3C
3C
00
00
00
00
00
ENDCHAR

STARTCHAR U
ENCODING 85
SWIDTH 361 0
DWIDTH 7 0
BBX 7 20 0 -5
BITMAP
00
00
00
00
66
66
66
66
66
66
66
66
66
7E
3C
00
00
00
00
00
ENDCHAR

STARTCHAR V
ENCODING 86
SWIDTH 361 0
DWIDTH 7 0
BBX 7 20 0 -5
BITMAP
00
00
00
00
66
66
66
66
66
66
66
3C
3C
18
18
00
00
00
00
00
ENDCHAR

STARTCHAR W
ENCODING 87
SWIDTH 361 0
DWIDTH 7 0
BBX 7 20 0 -5
BITMAP
00
00
00
00
66
66
66
66
66
66
7E
7E
7E
66
42
00
00
00
00
00
ENDCHAR

STARTCHAR X
ENCODING 88
SWIDTH 361 0
DWIDTH 7 0
BBX 7 20 0 -5
BITMAP
00
00
00
00
66
66
66
66
3C
18
3C
3C
66
66
66
00
00
00
00
00
ENDCHAR

STARTCHAR Y
ENCODING 89
SWIDTH 355 0
DWIDTH 7 0
BBX 7 20 0 -5
BITMAP
00
00
00
00
66
66
66
66
3C
3C
18
18
18
3C
3C
00
00
00
00
00
ENDCHAR

STARTCHAR Z
ENCODING 90
SWIDTH 361 0
DWIDTH 7 0
BBX 7 20 0 -5
BITMAP
00
00
00
00
7E
7E
46
0E
0C
1C
18
38
32
7E
7E
00
00
00
00
00
ENDCHAR

STARTCHAR bracketleft
ENCODING 91
SWIDTH 361 0
DWIDTH 7 0
BBX 7 20 0 -5
BITMAP
00
00
00
38
38
30
30
30
30
30
30
30
30
30
30
38
38
00
00
00
ENDCHAR

STARTCHAR backslash
ENCODING 92
SWIDTH 361 0
DWIDTH 7 0
BBX 7 20 0 -5
BITMAP
00
00
00
00
60
60
60
30
30
30
18
18
18
0C
0C
0C
00
00
00
00
ENDCHAR

STARTCHAR bracketright
ENCODING 93
SWIDTH 361 0
DWIDTH 7 0
BBX 7 20 0 -5
BITMAP
00
00
00
38
38
18
18
18
18
18
18
18
18
18
18
38
38
00
00
00
ENDCHAR

STARTCHAR asciicircum
ENCODING 94
SWIDTH 361 0
DWIDTH 7 0
BBX 7 20 0 -5
BITMAP
00
00
18
3C
66
42
00
00
00
00
00
00
00
00
00
00
00
00
00
00
ENDCHAR

STARTCHAR underscore
ENCODING 95
SWIDTH 361 0
DWIDTH 7 0
BBX 7 20 0 -5
BITMAP
00
00
00
00
00
00
00
00
00
00
00
00
00
7E
7E
00
00
00
00
00
ENDCHAR

STARTCHAR quoteleft
ENCODING 96
SWIDTH 361 0
DWIDTH 7 0
BBX 7 20 0 -5
BITMAP
00
00
30
18
18
0C
00
00
00
00
00
00
00
00
00
00
00
00
00
00
ENDCHAR

STARTCHAR a
ENCODING 97
SWIDTH 361 0
DWIDTH 7 0
BBX 7 20 0 -5
BITMAP
00
00
00
00
00
00
3C
7E
06
3E
7E
66
66
7E
36
00
00
00
00
00
ENDCHAR

STARTCHAR b
ENCODING 98
SWIDTH 361 0
DWIDTH 7 0
BBX 7 20 0 -5
BITMAP
00
00
00
60
60
60
6C
7E
66
66
66
66
66
7E
7C
00
00
00
00
00
ENDCHAR

STARTCHAR c
ENCODING 99
SWIDTH 361 0
DWIDTH 7 0
BBX 7 20 0 -5
BITMAP
00
00
00
00
00
00
3A
7E
66
66
60
60
66
7E
3C
00
00
00
00
00
ENDCHAR

STARTCHAR d
ENCODING 100
SWIDTH 361 0
DWIDTH 7 0
BBX 7 20 0 -5
BITMAP
00
00
00
0E
0E
06
36
7E
66
66
66
66
66
7E
3E
00
00
00
00
00
ENDCHAR

STARTCHAR e
ENCODING 101
SWIDTH 361 0
DWIDTH 7 0
BBX 7 20 0 -5
BITMAP
00
00
00
00
00
00
3C
7E
66
7E
7E
60
66
7E
3C
00
00
00
00
00
ENDCHAR

STARTCHAR f
ENCODING 102
SWIDTH 361 0
DWIDTH 7 0
BBX 7 20 0 -5
BITMAP
00
00
00
0C
1E
18
7E
7E
18
18
18
18
18
7E
7E
00
00
00
00
00
ENDCHAR

STARTCHAR g
ENCODING 103
SWIDTH 361 0
DWIDTH 7 0
BBX 7 20 0 -5
BITMAP
00
00
00
00
00
00
36
7E
66
66
66
66
66
7E
3E
06
06
3E
3C
00
ENDCHAR

STARTCHAR h
ENCODING 104
SWIDTH 361 0
DWIDTH 7 0
BBX 7 20 0 -5
BITMAP
00
00
00
60
60
60
6C
7E
76
66
66
66
66
66
66
00
00
00
00
00
ENDCHAR

STARTCHAR i
ENCODING 105
SWIDTH 350 0
DWIDTH 7 0
BBX 7 20 0 -5
BITMAP
00
00
18
18
18
00
38
38
18
18
18
18
18
7E
7E
00
00
00
00
00
ENDCHAR

STARTCHAR j
ENCODING 106
SWIDTH 361 0
DWIDTH 7 0
BBX 7 20 0 -5
BITMAP
00
00
0C
0C
0C
00
3C
3C
0C
0C
0C
0C
0C
0C
0C
0C
0C
3C
38
00
ENDCHAR

STARTCHAR k
ENCODING 107
SWIDTH 361 0
DWIDTH 7 0
BBX 7 20 0 -5
BITMAP
00
00
00
60
60
60
66
6E
6C
78
78
6C
6C
6E
66
00
00
00
00
00
ENDCHAR

STARTCHAR l
ENCODING 108
SWIDTH 361 0
DWIDTH 7 0
BBX 7 20 0 -5
BITMAP
00
00
00
38
38
18
18
18
18
18
18
18
18
7E
7E
00
00
00
00
00
ENDCHAR

STARTCHAR m
ENCODING 109
SWIDTH 361 0
DWIDTH 7 0
BBX 7 20 0 -5
BITMAP
00
00
00
00
00
00
AC
FE
D6
D6
D6
D6
D6
D6
D6
00
00
00
00
00
ENDCHAR

STARTCHAR n
ENCODING 110
SWIDTH 361 0
DWIDTH 7 0
BBX 7 20 0 -5
BITMAP
00
00
00
00
00
00
6C
7E
76
66
66
66
66
66
66
00
00
00
00
00
ENDCHAR

STARTCHAR o
ENCODING 111
SWIDTH 361 0
DWIDTH 7 0
BBX 7 20 0 -5
BITMAP
00
00
00
00
00
00
3C
7E
66
66
66
66
66
7E
3C
00
00
00
00
00
ENDCHAR

STARTCHAR p
ENCODING 112
SWIDTH 362 0
DWIDTH 7 0
BBX 7 20 0 -5
BITMAP
00
00
00
00
00
00
6C
7E
66
66
66
66
66
7E
7C
60
60
78
78
00
ENDCHAR

STARTCHAR q
ENCODING 113
SWIDTH 362 0
DWIDTH 7 0
BBX 7 20 0 -5
BITMAP
00
00
00
00
00
00
36
7E
66
66
66
66
66
7E
3E
06
06
1E
1E
00
ENDCHAR

STARTCHAR r
ENCODING 114
SWIDTH 361 0
DWIDTH 7 0
BBX 7 20 0 -5
BITMAP
00
00
00
00
00
00
6E
7E
30
30
30
30
30
7C
7C
00
00
00
00
00
ENDCHAR

STARTCHAR s
ENCODING 115
SWIDTH 361 0
DWIDTH 7 0
BBX 7 20 0 -5
BITMAP
00
00
00
00
00
00
3E
7E
62
70
3C
0E
46
7E
7C
00
00
00
00
00
ENDCHAR

STARTCHAR t
ENCODING 116
SWIDTH 361 0
DWIDTH 7 0
BBX 7 20 0 -5
BITMAP
00
00
00
30
30
30
7C
7C
30
30
30
30
36
3E
1C
00
00
00
00
00
ENDCHAR

STARTCHAR u
ENCODING 117
SWIDTH 361 0
DWIDTH 7 0
BBX 7 20 0 -5
BITMAP
00
00
00
00
00
00
66
66
66
66
66
66
6E
7E
36
00
00
00
00
00
ENDCHAR

STARTCHAR v
ENCODING 118
SWIDTH 361 0
DWIDTH 7 0
BBX 7 20 0 -5
BITMAP
00
00
00
00
00
00
66
66
66
66
66
66
3C
3C
18
00
00
00
00
00
ENDCHAR

STARTCHAR w
ENCODING 119
SWIDTH 361 0
DWIDTH 7 0
BBX 7 20 0 -5
BITMAP
00
00
00
00
00
00
C6
C6
D6
D6
D6
D6
7C
6C
6C
00
00
00
00
00
ENDCHAR

STARTCHAR x
ENCODING 120
SWIDTH 361 0
DWIDTH 7 0
BBX 7 20 0 -5
BITMAP
00
00
00
00
00
00
66
66
66
3C
18
3C
66
66
66
00
00
00
00
00
ENDCHAR

STARTCHAR y
ENCODING 121
SWIDTH 361 0
DWIDTH 7 0
BBX 7 20 0 -5
BITMAP
00
00
00
00
00
00
66
66
66
66
66
66
3C
3C
18
18
18
7C
7C
00
ENDCHAR

STARTCHAR z
ENCODING 122
SWIDTH 361 0
DWIDTH 7 0
BBX 7 20 0 -5
BITMAP
00
00
00
00
00
00
7E
7E
0C
0C
18
18
30
7E
7E
00
00
00
00
00
ENDCHAR

STARTCHAR braceleft
ENCODING 123
SWIDTH 361 0
DWIDTH 7 0
BBX 7 20 0 -5
BITMAP
00
00
0C
0C
18
18
18
18
18
70
18
18
18
18
18
0C
0C
00
00
00
ENDCHAR

STARTCHAR bar
ENCODING 124
SWIDTH 361 0
DWIDTH 7 0
BBX 7 20 0 -5
BITMAP
00
00
18
18
18
18
18
18
18
18
18
18
18
18
18
18
18
18
00
00
ENDCHAR

STARTCHAR braceright
ENCODING 125
SWIDTH 361 0
DWIDTH 7 0
BBX 7 20 0 -5
BITMAP
00
00
60
60
30
30
30
30
30
1C
30
30
30
30
30
60
60
00
00
00
ENDCHAR

STARTCHAR asciitilde
ENCODING 126
SWIDTH 361 0
DWIDTH 7 0
BBX 7 20 0 -5
BITMAP
00
00
32
7E
4C
00
00
00
00
00
00
00
00
00
00
00
00
00
00
00
ENDCHAR

STARTCHAR space
ENCODING 160
SWIDTH 361 0
DWIDTH 7 0
BBX 7 20 0 -5
BITMAP
00
00
00
00
00
00
00
00
00
00
00
00
00
00
00
00
00
00
00
00
ENDCHAR

STARTCHAR afii10023
ENCODING 161
SWIDTH 361 0
DWIDTH 7 0
BBX 7 20 0 -5
BITMAP
66
66
00
00
7E
7E
60
60
7C
7C
60
60
60
7E
7E
00
00
00
00
00
ENDCHAR

STARTCHAR afii10051
ENCODING 162
SWIDTH 361 0
DWIDTH 7 0
BBX 7 20 0 -5
BITMAP
00
00
00
00
FC
FC
B4
30
3C
3E
36
36
36
36
36
06
06
1E
1C
00
ENDCHAR

STARTCHAR afii10052
ENCODING 163
SWIDTH 361 0
DWIDTH 7 0
BBX 7 20 0 -5
BITMAP
0C
18
30
00
7E
7E
62
60
60
60
60
60
60
60
60
00
00
00
00
00
ENDCHAR

STARTCHAR afii10053
ENCODING 164
SWIDTH 361 0
DWIDTH 7 0
BBX 7 20 0 -5
BITMAP
00
00
00
00
3A
7E
66
66
60
78
78
60
66
7E
3C
00
00
00
00
00
ENDCHAR

STARTCHAR afii10054
ENCODING 165
SWIDTH 361 0
DWIDTH 7 0
BBX 7 20 0 -5
BITMAP
00
00
00
00
3E
7E
66
60
70
3C
0E
06
66
7E
7C
00
00
00
00
00
ENDCHAR

STARTCHAR afii10055
ENCODING 166
SWIDTH 361 0
DWIDTH 7 0
BBX 7 20 0 -5
BITMAP
00
00
00
00
7E
7E
18
18
18
18
18
18
18
7E
7E
00
00
00
00
00
ENDCHAR

STARTCHAR afii10056
ENCODING 167
SWIDTH 361 0
DWIDTH 7 0
BBX 7 20 0 -5
BITMAP
66
66
00
00
7E
7E
18
18
18
18
18
18
18
7E
7E
00
00
00
00
00
ENDCHAR

STARTCHAR afii10057
ENCODING 168
SWIDTH 361 0
DWIDTH 7 0
BBX 7 20 0 -5
BITMAP
00
00
00
00
3E
3E
0C
0C
0C
0C
0C
6C
6C
7C
38
00
00
00
00
00
ENDCHAR

STARTCHAR afii10058
ENCODING 169
SWIDTH 361 0
DWIDTH 7 0
BBX 7 20 0 -5
BITMAP
00
00
00
00
30
30
30
30
30
3C
3E
36
B6
FE
EC
00
00
00
00
00
ENDCHAR

STARTCHAR afii10059
ENCODING 170
SWIDTH 361 0
DWIDTH 7 0
BBX 7 20 0 -5
BITMAP
00
00
00
00
D8
D8
D8
D8
D8
FC
FE
DA
DA
DE
DC
00
00
00
00
00
ENDCHAR

STARTCHAR afii10060
ENCODING 171
SWIDTH 361 0
DWIDTH 7 0
BBX 7 20 0 -5
BITMAP
00
00
00
00
FC
FC
B4
30
3C
3E
36
36
36
36
36
00
00
00
00
00
ENDCHAR

STARTCHAR afii10061
ENCODING 172
SWIDTH 361 0
DWIDTH 7 0
BBX 7 20 0 -5
BITMAP
0C
18
30
00
C6
CE
DA
D8
F0
F0
D8
D8
CC
CC
C6
00
00
00
00
00
ENDCHAR

STARTCHAR hyphen
ENCODING 173
SWIDTH 361 0
DWIDTH 7 0
BBX 7 20 0 -5
BITMAP
00
00
00
00
00
00
00
00
00
3C
3C
00
00
00
00
00
00
00
00
00
ENDCHAR

STARTCHAR afii10062
ENCODING 174
SWIDTH 361 0
DWIDTH 7 0
BBX 7 20 0 -5
BITMAP
22
1C
1C
00
66
66
66
66
66
66
3C
3C
D8
F0
E0
00
00
00
00
00
ENDCHAR

STARTCHAR afii10145
ENCODING 175
SWIDTH 361 0
DWIDTH 7 0
BBX 7 20 0 -5
BITMAP
00
00
00
00
66
66
66
66
66
66
66
66
66
7E
7E
18
18
00
00
00
ENDCHAR

STARTCHAR afii10017
ENCODING 176
SWIDTH 361 0
DWIDTH 7 0
BBX 7 20 0 -5
BITMAP
00
00
00
00
18
3C
3C
66
66
66
7E
7E
66
66
66
00
00
00
00
00
ENDCHAR

STARTCHAR afii10018
ENCODING 177
SWIDTH 361 0
DWIDTH 7 0
BBX 7 20 0 -5
BITMAP
00
00
00
00
7E
7E
66
60
7C
7E
66
66
66
7E
7C
00
00
00
00
00
ENDCHAR

STARTCHAR afii10019
ENCODING 178
SWIDTH 361 0
DWIDTH 7 0
BBX 7 20 0 -5
BITMAP
00
00
00
00
7C
7E
66
66
7E
7C
66
66
66
7E
7C
00
00
00
00
00
ENDCHAR

STARTCHAR afii10020
ENCODING 179
SWIDTH 361 0
DWIDTH 7 0
BBX 7 20 0 -5
BITMAP
00
00
00
00
7E
7E
62
60
60
60
60
60
60
60
60
00
00
00
00
00
ENDCHAR

STARTCHAR afii10021
ENCODING 180
SWIDTH 361 0
DWIDTH 7 0
BBX 7 20 0 -5
BITMAP
00
00
00
00
7E
7E
66
66
66
66
66
66
C6
FE
FE
C6
C6
C6
00
00
ENDCHAR

STARTCHAR afii10022
ENCODING 181
SWIDTH 361 0
DWIDTH 7 0
BBX 7 20 0 -5
BITMAP
00
00
00
00
7E
7E
60
60
7C
7C
60
60
60
7E
7E
00
00
00
00
00
ENDCHAR

STARTCHAR afii10024
ENCODING 182
SWIDTH 361 0
DWIDTH 7 0
BBX 7 20 0 -5
BITMAP
00
00
00
00
D6
D6
54
54
7C
38
7C
54
54
54
D6
00
00
00
00
00
ENDCHAR

STARTCHAR afii10025
ENCODING 183
SWIDTH 361 0
DWIDTH 7 0
BBX 7 20 0 -5
BITMAP
00
00
00
00
7C
FE
C6
06
3C
3E
06
06
C6
FE
7C
00
00
00
00
00
ENDCHAR

STARTCHAR afii10026
ENCODING 184
SWIDTH 361 0
DWIDTH 7 0
BBX 7 20 0 -5
BITMAP
00
00
00
00
66
66
66
6E
6E
7E
76
76
66
66
66
00
00
00
00
00
ENDCHAR

STARTCHAR afii10027
ENCODING 185
SWIDTH 361 0
DWIDTH 7 0
BBX 7 20 0 -5
BITMAP
22
1C
1C
00
66
66
66
6E
6E
7E
76
76
66
66
66
00
00
00
00
00
ENDCHAR

STARTCHAR afii10028
ENCODING 186
SWIDTH 361 0
DWIDTH 7 0
BBX 7 20 0 -5
BITMAP
00
00
00
00
C6
CE
DA
D8
F0
F0
D8
D8
CC
CC
C6
00
00
00
00
00
ENDCHAR

STARTCHAR afii10029
ENCODING 187
SWIDTH 361 0
DWIDTH 7 0
BBX 7 20 0 -5
BITMAP
00
00
00
00
3E
3E
36
36
36
36
36
36
B6
F6
E6
00
00
00
00
00
ENDCHAR

STARTCHAR afii10030
ENCODING 188
SWIDTH 361 0
DWIDTH 7 0
BBX 7 20 0 -5
BITMAP
00
00
00
00
42
66
66
7E
7E
7E
66
66
66
66
66
00
00
00
00
00
ENDCHAR

STARTCHAR afii10031
ENCODING 189
SWIDTH 361 0
DWIDTH 7 0
BBX 7 20 0 -5
BITMAP
00
00
00
00
66
66
66
66
7E
7E
66
66
66
66
66
00
00
00
00
00
ENDCHAR

STARTCHAR afii10032
ENCODING 190
SWIDTH 361 0
DWIDTH 7 0
BBX 7 20 0 -5
BITMAP
00
00
00
00
3C
7E
66
66
66
66
66
66
66
7E
3C
00
00
00
00
00
ENDCHAR

STARTCHAR afii10033
ENCODING 191
SWIDTH 361 0
DWIDTH 7 0
BBX 7 20 0 -5
BITMAP
00
00
00
00
7E
7E
66
66
66
66
66
66
66
66
66
00
00
00
00
00
ENDCHAR

STARTCHAR afii10034
ENCODING 192
SWIDTH 361 0
DWIDTH 7 0
BBX 7 20 0 -5
BITMAP
00
00
00
00
7C
7E
66
66
66
7E
7C
60
60
70
70
00
00
00
00
00
ENDCHAR

STARTCHAR afii10035
ENCODING 193
SWIDTH 361 0
DWIDTH 7 0
BBX 7 20 0 -5
BITMAP
00
00
00
00
3A
7E
66
66
60
60
60
60
66
7E
3C
00
00
00
00
00
ENDCHAR

STARTCHAR afii10036
ENCODING 194
SWIDTH 361 0
DWIDTH 7 0
BBX 7 20 0 -5
BITMAP
00
00
00
00
7E
7E
5A
18
18
18
18
18
18
3C
3C
00
00
00
00
00
ENDCHAR

STARTCHAR afii10037
ENCODING 195
SWIDTH 361 0
DWIDTH 7 0
BBX 7 20 0 -5
BITMAP
00
00
00
00
66
66
66
66
66
66
3C
3C
D8
F0
E0
00
00
00
00
00
ENDCHAR

STARTCHAR afii10038
ENCODING 196
SWIDTH 361 0
DWIDTH 7 0
BBX 7 20 0 -5
BITMAP
00
00
00
00
3C
18
3C
7E
5A
5A
5A
7E
3C
18
3C
00
00
00
00
00
ENDCHAR

STARTCHAR afii10039
ENCODING 197
SWIDTH 361 0
DWIDTH 7 0
BBX 7 20 0 -5
BITMAP
00
00
00
00
66
66
66
66
3C
18
3C
3C
66
66
66
00
00
00
00
00
ENDCHAR

STARTCHAR afii10040
ENCODING 198
SWIDTH 361 0
DWIDTH 7 0
BBX 7 20 0 -5
BITMAP
00
00
00
00
66
66
66
66
66
66
66
66
66
7E
7E
06
06
06
00
00
ENDCHAR

STARTCHAR afii10041
ENCODING 199
SWIDTH 361 0
DWIDTH 7 0
BBX 7 20 0 -5
BITMAP
00
00
00
00
66
66
66
66
6E
7E
36
06
06
06
06
00
00
00
00
00
ENDCHAR

STARTCHAR afii10042
ENCODING 200
SWIDTH 361 0
DWIDTH 7 0
BBX 7 20 0 -5
BITMAP
00
00
00
00
D6
D6
D6
D6
D6
D6
D6
D6
D6
D6
FE
00
00
00
00
00
ENDCHAR

STARTCHAR afii10043
ENCODING 201
SWIDTH 361 0
DWIDTH 7 0
BBX 7 20 0 -5
BITMAP
00
00
00
00
D6
D6
D6
D6
D6
D6
D6
D6
D6
D6
FE
06
06
06
00
00
ENDCHAR

STARTCHAR afii10044
ENCODING 202
SWIDTH 361 0
DWIDTH 7 0
BBX 7 20 0 -5
BITMAP
00
00
00
00
F0
F0
B0
B0
B0
3C
3E
36
36
3E
3C
00
00
00
00
00
ENDCHAR

STARTCHAR afii10045
ENCODING 203
SWIDTH 361 0
DWIDTH 7 0
BBX 7 20 0 -5
BITMAP
00
00
00
00
C6
C6
C6
C6
C6
F6
FE
DE
DE
FE
F6
00
00
00
00
00
ENDCHAR

STARTCHAR afii10046
ENCODING 204
SWIDTH 361 0
DWIDTH 7 0
BBX 7 20 0 -5
BITMAP
00
00
00
00
60
60
60
60
60
7C
7E
66
66
7E
7C
00
00
00
00
00
ENDCHAR

STARTCHAR afii10047
ENCODING 205
SWIDTH 361 0
DWIDTH 7 0
BBX 7 20 0 -5
BITMAP
00
00
00
00
5C
7E
66
66
06
1E
1E
06
66
7E
3C
00
00
00
00
00
ENDCHAR

STARTCHAR afii10048
ENCODING 206
SWIDTH 361 0
DWIDTH 7 0
BBX 7 20 0 -5
BITMAP
00
00
00
00
DC
FE
E6
E6
E6
E6
E6
E6
E6
FE
DC
00
00
00
00
00
ENDCHAR

STARTCHAR afii10049
ENCODING 207
SWIDTH 361 0
DWIDTH 7 0
BBX 7 20 0 -5
BITMAP
00
00
00
00
3E
7E
66
66
66
3E
3E
36
76
66
66
00
00
00
00
00
ENDCHAR

STARTCHAR afii10065
ENCODING 208
SWIDTH 361 0
DWIDTH 7 0
BBX 7 20 0 -5
BITMAP
00
00
00
00
00
00
3C
7E
06
3E
7E
66
66
7E
36
00
00
00
00
00
ENDCHAR

STARTCHAR afii10066
ENCODING 209
SWIDTH 361 0
DWIDTH 7 0
BBX 7 20 0 -5
BITMAP
00
00
06
3E
7C
60
7C
7E
66
66
66
66
66
7E
3C
00
00
00
00
00
ENDCHAR

STARTCHAR afii10067
ENCODING 210
SWIDTH 361 0
DWIDTH 7 0
BBX 7 20 0 -5
BITMAP
00
00
00
00
00
00
7C
7E
66
66
7C
66
66
7E
7C
00
00
00
00
00
ENDCHAR

STARTCHAR afii10068
ENCODING 211
SWIDTH 361 0
DWIDTH 7 0
BBX 7 20 0 -5
BITMAP
00
00
00
00
00
00
7E
7E
62
60
60
60
60
60
60
00
00
00
00
00
ENDCHAR

STARTCHAR afii10069
ENCODING 212
SWIDTH 361 0
DWIDTH 7 0
BBX 7 20 0 -5
BITMAP
00
00
00
00
00
00
7E
7E
66
66
66
66
C6
FE
FE
C6
C6
00
00
00
ENDCHAR

STARTCHAR afii10070
ENCODING 213
SWIDTH 361 0
DWIDTH 7 0
BBX 7 20 0 -5
BITMAP
00
00
00
00
00
00
3C
7E
66
7E
7E
60
66
7E
3C
00
00
00
00
00
ENDCHAR

STARTCHAR afii10072
ENCODING 214
SWIDTH 361 0
DWIDTH 7 0
BBX 7 20 0 -5
BITMAP
00
00
00
00
00
00
D6
D6
54
7C
38
7C
54
54
D6
00
00
00
00
00
ENDCHAR

STARTCHAR afii10073
ENCODING 215
SWIDTH 361 0
DWIDTH 7 0
BBX 7 20 0 -5
BITMAP
00
00
00
00
00
00
7C
FE
C6
1E
1C
06
C6
FE
7C
00
00
00
00
00
ENDCHAR

STARTCHAR afii10074
ENCODING 216
SWIDTH 361 0
DWIDTH 7 0
BBX 7 20 0 -5
BITMAP
00
00
00
00
00
00
66
66
6E
6E
7E
76
76
66
66
00
00
00
00
00
ENDCHAR

STARTCHAR afii10075
ENCODING 217
SWIDTH 361 0
DWIDTH 7 0
BBX 7 20 0 -5
BITMAP
00
22
1C
1C
00
00
66
66
6E
6E
7E
76
76
66
66
00
00
00
00
00
ENDCHAR

STARTCHAR afii10076
ENCODING 218
SWIDTH 361 0
DWIDTH 7 0
BBX 7 20 0 -5
BITMAP
00
00
00
00
00
00
CE
DA
DA
F0
F0
D8
CC
CC
C6
00
00
00
00
00
ENDCHAR

STARTCHAR afii10077
ENCODING 219
SWIDTH 361 0
DWIDTH 7 0
BBX 7 20 0 -5
BITMAP
00
00
00
00
00
00
3E
3E
36
36
36
36
B6
F6
E6
00
00
00
00
00
ENDCHAR

STARTCHAR afii10078
ENCODING 220
SWIDTH 361 0
DWIDTH 7 0
BBX 7 20 0 -5
BITMAP
00
00
00
00
00
00
C6
C6
EE
EE
FE
D6
D6
C6
C6
00
00
00
00
00
ENDCHAR

STARTCHAR afii10079
ENCODING 221
SWIDTH 361 0
DWIDTH 7 0
BBX 7 20 0 -5
BITMAP
00
00
00
00
00
00
66
66
66
7E
7E
66
66
66
66
00
00
00
00
00
ENDCHAR

STARTCHAR afii10080
ENCODING 222
SWIDTH 361 0
DWIDTH 7 0
BBX 7 20 0 -5
BITMAP
00
00
00
00
00
00
3C
7E
66
66
66
66
66
7E
3C
00
00
00
00
00
ENDCHAR

STARTCHAR afii10081
ENCODING 223
SWIDTH 361 0
DWIDTH 7 0
BBX 7 20 0 -5
BITMAP
00
00
00
00
00
00
7E
7E
66
66
66
66
66
66
66
00
00
00
00
00
ENDCHAR

STARTCHAR afii10082
ENCODING 224
SWIDTH 361 0
DWIDTH 7 0
BBX 7 20 0 -5
BITMAP
00
00
00
00
00
00
6C
7E
66
66
66
66
66
7E
7C
60
60
78
78
00
ENDCHAR

STARTCHAR afii10083
ENCODING 225
SWIDTH 361 0
DWIDTH 7 0
BBX 7 20 0 -5
BITMAP
00
00
00
00
00
00
3A
7E
66
66
60
60
66
7E
3C
00
00
00
00
00
ENDCHAR

STARTCHAR afii10084
ENCODING 226
SWIDTH 361 0
DWIDTH 7 0
BBX 7 20 0 -5
BITMAP
00
00
00
00
00
00
7E
7E
5A
18
18
18
18
3C
3C
00
00
00
00
00
ENDCHAR

STARTCHAR afii10085
ENCODING 227
SWIDTH 361 0
DWIDTH 7 0
BBX 7 20 0 -5
BITMAP
00
00
00
00
00
00
66
66
66
66
66
66
3C
3C
D8
F0
E0
00
00
00
ENDCHAR

STARTCHAR afii10086
ENCODING 228
SWIDTH 361 0
DWIDTH 7 0
BBX 7 20 0 -5
BITMAP
00
00
00
38
18
18
3C
7E
5A
5A
5A
5A
5A
7E
3C
18
18
3C
00
00
ENDCHAR

STARTCHAR afii10087
ENCODING 229
SWIDTH 361 0
DWIDTH 7 0
BBX 7 20 0 -5
BITMAP
00
00
00
00
00
00
66
66
66
3C
18
3C
66
66
66
00
00
00
00
00
ENDCHAR

STARTCHAR afii10088
ENCODING 230
SWIDTH 361 0
DWIDTH 7 0
BBX 7 20 0 -5
BITMAP
00
00
00
00
00
00
66
66
66
66
66
66
66
7E
7E
06
06
00
00
00
ENDCHAR

STARTCHAR afii10089
ENCODING 231
SWIDTH 361 0
DWIDTH 7 0
BBX 7 20 0 -5
BITMAP
00
00
00
00
00
00
66
66
66
66
7E
3E
06
06
06
00
00
00
00
00
ENDCHAR

STARTCHAR afii10090
ENCODING 232
SWIDTH 361 0
DWIDTH 7 0
BBX 7 20 0 -5
BITMAP
00
00
00
00
00
00
D6
D6
D6
D6
D6
D6
D6
FE
FE
00
00
00
00
00
ENDCHAR

STARTCHAR afii10091
ENCODING 233
SWIDTH 361 0
DWIDTH 7 0
BBX 7 20 0 -5
BITMAP
00
00
00
00
00
00
D6
D6
D6
D6
D6
D6
D6
FE
FE
06
06
00
00
00
ENDCHAR

STARTCHAR afii10092
ENCODING 234
SWIDTH 361 0
DWIDTH 7 0
BBX 7 20 0 -5
BITMAP
00
00
00
00
00
00
F0
F0
B0
B0
3C
3E
36
3E
3C
00
00
00
00
00
ENDCHAR

STARTCHAR afii10093
ENCODING 235
SWIDTH 361 0
DWIDTH 7 0
BBX 7 20 0 -5
BITMAP
00
00
00
00
00
00
C6
C6
C6
C6
F6
FE
DE
FE
F6
00
00
00
00
00
ENDCHAR

STARTCHAR afii10094
ENCODING 236
SWIDTH 361 0
DWIDTH 7 0
BBX 7 20 0 -5
BITMAP
00
00
00
00
00
00
70
70
30
30
3C
3E
36
7E
7C
00
00
00
00
00
ENDCHAR

STARTCHAR afii10095
ENCODING 237
SWIDTH 361 0
DWIDTH 7 0
BBX 7 20 0 -5
BITMAP
00
00
00
00
00
00
5C
7E
66
66
1E
06
66
7E
3C
00
00
00
00
00
ENDCHAR

STARTCHAR afii10096
ENCODING 238
SWIDTH 361 0
DWIDTH 7 0
BBX 7 20 0 -5
BITMAP
00
00
00
00
00
00
DC
FE
E6
E6
E6
E6
E6
FE
DC
00
00
00
00
00
ENDCHAR

STARTCHAR afii10097
ENCODING 239
SWIDTH 361 0
DWIDTH 7 0
BBX 7 20 0 -5
BITMAP
00
00
00
00
00
00
3E
7E
66
66
7E
3E
36
66
66
00
00
00
00
00
ENDCHAR

STARTCHAR afii61352
ENCODING 240
SWIDTH 361 0
DWIDTH 7 0
BBX 7 20 0 -5
BITMAP
00
00
00
00
98
DE
DE
FE
FE
F8
F8
DE
D8
D8
C8
00
00
00
00
00
ENDCHAR

STARTCHAR afii10071
ENCODING 241
SWIDTH 361 0
DWIDTH 7 0
BBX 7 20 0 -5
BITMAP
00
00
66
66
00
00
3C
7E
66
7E
7E
60
66
7E
3C
00
00
00
00
00
ENDCHAR

STARTCHAR afii10099
ENCODING 242
SWIDTH 361 0
DWIDTH 7 0
BBX 7 20 0 -5
BITMAP
00
00
00
60
F8
F8
60
6C
7E
76
66
66
66
66
66
06
06
1E
1C
00
ENDCHAR

STARTCHAR afii10100
ENCODING 243
SWIDTH 361 0
DWIDTH 7 0
BBX 7 20 0 -5
BITMAP
00
0C
18
30
00
00
FE
FE
C2
C0
C0
C0
C0
C0
C0
00
00
00
00
00
ENDCHAR

STARTCHAR afii10101
ENCODING 244
SWIDTH 361 0
DWIDTH 7 0
BBX 7 20 0 -5
BITMAP
00
00
00
00
00
00
3A
7E
66
66
78
60
66
7E
3C
00
00
00
00
00
ENDCHAR

STARTCHAR afii10102
ENCODING 245
SWIDTH 361 0
DWIDTH 7 0
BBX 7 20 0 -5
BITMAP
00
00
00
00
00
00
3E
7E
62
70
3C
0E
46
7E
7C
00
00
00
00
00
ENDCHAR

STARTCHAR afii10103
ENCODING 246
SWIDTH 362 0
DWIDTH 7 0
BBX 7 20 0 -5
BITMAP
00
00
18
18
18
00
38
38
18
18
18
18
18
7E
7E
00
00
00
00
00
ENDCHAR

STARTCHAR afii10104
ENCODING 247
SWIDTH 361 0
DWIDTH 7 0
BBX 7 20 0 -5
BITMAP
00
00
66
66
00
00
38
38
18
18
18
18
18
7E
7E
00
00
00
00
00
ENDCHAR

STARTCHAR afii10105
ENCODING 248
SWIDTH 361 0
DWIDTH 7 0
BBX 7 20 0 -5
BITMAP
00
00
0C
0C
0C
00
3C
3C
0C
0C
0C
0C
0C
0C
0C
0C
0C
3C
38
00
ENDCHAR

STARTCHAR afii10106
ENCODING 249
SWIDTH 361 0
DWIDTH 7 0
BBX 7 20 0 -5
BITMAP
00
00
00
00
00
00
30
30
30
30
3C
3E
B6
FE
DC
00
00
00
00
00
ENDCHAR

STARTCHAR afii10107
ENCODING 250
SWIDTH 361 0
DWIDTH 7 0
BBX 7 20 0 -5
BITMAP
00
00
00
00
00
00
D8
D8
D8
D8
FC
FE
DA
DE
DC
00
00
00
00
00
ENDCHAR

STARTCHAR afii10108
ENCODING 251
SWIDTH 361 0
DWIDTH 7 0
BBX 7 20 0 -5
BITMAP
00
00
00
60
F8
F8
60
6C
7E
76
66
66
66
66
66
00
00
00
00
00
ENDCHAR

STARTCHAR afii10109
ENCODING 252
SWIDTH 361 0
DWIDTH 7 0
BBX 7 20 0 -5
BITMAP
00
0C
18
30
00
00
CE
DA
DA
F0
F0
D8
CC
CC
C6
00
00
00
00
00
ENDCHAR

STARTCHAR section
ENCODING 253
SWIDTH 361 0
DWIDTH 7 0
BBX 7 20 0 -5
BITMAP
00
00
00
00
00
1E
3E
32
78
6C
6C
36
36
1C
4C
7C
78
00
00
00
ENDCHAR

STARTCHAR afii10110
ENCODING 254
SWIDTH 361 0
DWIDTH 7 0
BBX 7 20 0 -5
BITMAP
00
22
1C
1C
00
00
66
66
66
66
66
66
3C
3C
D8
F0
E0
00
00
00
ENDCHAR

STARTCHAR afii10193
ENCODING 255
SWIDTH 361 0
DWIDTH 7 0
BBX 7 20 0 -5
BITMAP
00
00
00
00
00
00
66
66
66
66
66
66
66
7E
7E
18
18
00
00
00
ENDCHAR
ENDFONT
